<svg width="154" height="144" viewBox="0 0 154 144" fill="none" xmlns="http://www.w3.org/2000/svg">
<path d="M121.412 4.08867C121.915 4.31602 122.139 4.90835 121.911 5.41167L118.206 13.6137C117.979 14.117 117.387 14.3407 116.883 14.1133C116.38 13.886 116.156 13.2937 116.384 12.7903L119.677 5.49967L112.386 2.20632C111.883 1.97896 111.659 1.38663 111.887 0.883317C112.114 0.380001 112.706 0.156293 113.21 0.383652L121.412 4.08867ZM21.277 143.104C20.9044 109.382 40.2563 34.426 120.647 4.0645L121.353 5.9355C42.012 35.9008 22.91 109.879 23.2769 143.082L21.277 143.104Z" fill="#828587"/>
</svg>