<svg width="120" height="120" viewBox="0 0 120 120" fill="none" xmlns="http://www.w3.org/2000/svg">
<path d="M78.7618 28.6377C67.3272 26.4541 55.4529 26.4541 44.0183 28.6377C38.9607 29.7296 32.5838 35.8438 31.4843 40.6478C29.5052 50.0376 29.5052 59.6456 31.4843 69.0354C32.8037 73.8394 39.1806 79.9536 44.0183 81.0455C44.2382 81.0455 44.4581 81.2638 44.4581 81.4822V95.2392C44.4581 95.8943 45.3377 96.331 45.7775 95.6759L52.3743 88.9066C52.3743 88.9066 57.6518 83.4475 58.5314 82.574C58.5314 82.574 58.7513 82.3556 58.9712 82.3556C65.5681 82.574 72.3848 81.9189 78.9817 80.8271C84.0393 79.7353 90.4162 73.621 91.5157 68.817C93.4948 59.4273 93.4948 49.8192 91.5157 40.4295C90.1963 35.8438 83.8194 29.7296 78.7618 28.6377ZM78.9817 69.6905C77.8822 71.8741 76.5628 73.621 74.3639 74.7129C73.7042 74.9312 73.0445 75.1496 72.3848 75.368C71.5052 75.1496 70.8456 74.9312 70.1859 74.7129C63.1492 71.8741 56.5524 67.9435 51.2749 62.266C48.4162 58.9905 45.9974 55.2783 44.0183 51.3477C43.1387 49.3825 42.2592 47.6355 41.5995 45.6702C40.9398 43.9233 42.0393 42.1764 43.1387 40.8662C44.2382 39.556 45.5576 38.6826 47.0969 38.0275C48.1963 37.3724 49.2958 37.8091 50.1754 38.6826C51.9346 40.8662 53.6937 43.0499 55.0131 45.4519C55.8927 46.9804 55.6728 48.7274 54.1335 49.8192C53.6937 50.0376 53.4738 50.2559 53.034 50.6927C52.8141 50.911 52.3743 51.1294 52.1544 51.5661C51.7146 52.2212 51.7147 52.8763 51.9345 53.5314C53.6937 58.5538 56.9921 62.4844 62.0497 64.668C62.9293 65.1048 63.589 65.3231 64.6885 65.3231C66.2277 65.1048 66.8874 63.3578 67.9869 62.4844C69.0864 61.6109 70.4058 61.6109 71.7251 62.266C72.8246 62.9211 73.9241 63.7946 75.2434 64.668C76.3429 65.5415 77.4424 66.1966 78.5419 67.0701C79.2016 67.5068 79.4215 68.5986 78.9817 69.6905ZM69.7461 53.313C69.3063 53.313 69.5262 53.313 69.7461 53.313C68.8665 53.313 68.6466 52.8763 68.4267 52.2212C68.4267 51.7845 68.4267 51.1294 68.2068 50.6927C67.9869 49.8192 67.5471 48.9457 66.6675 48.2906C66.2278 48.0723 65.7879 47.8539 65.3482 47.6355C64.6885 47.4172 64.2487 47.4172 63.589 47.4172C62.9293 47.1988 62.7094 46.7621 62.7094 46.107C62.7094 45.6702 63.3691 45.2335 63.8089 45.2335C67.3272 45.4519 69.966 47.4172 70.4058 51.5661C70.4058 51.7845 70.4058 52.2212 70.4058 52.4396C70.4058 52.8763 70.1859 53.313 69.7461 53.313ZM67.5471 43.705C66.4476 43.2682 65.3482 42.8315 64.0288 42.6131C63.589 42.6131 62.9293 42.3948 62.4895 42.3948C61.8298 42.3948 61.3901 41.958 61.6099 41.3029C61.6099 40.6478 62.0497 40.2111 62.7094 40.4295C64.9084 40.6478 66.8874 41.0846 68.8665 41.958C72.8246 43.9233 75.0236 47.1988 75.6832 51.5661C75.6832 51.7845 75.6832 52.0028 75.6832 52.2212C75.6832 52.6579 75.6832 53.0947 75.6832 53.7498C75.6832 53.9681 75.6832 54.1865 75.6832 54.4049C75.4634 55.2783 73.9241 55.4967 73.7042 54.4049C73.7042 54.1865 73.4843 53.7498 73.4843 53.5314C73.4843 51.5661 73.0445 49.6008 72.1649 47.8539C70.8456 45.8886 69.3063 44.5784 67.5471 43.705ZM79.4215 56.8069C78.7618 56.8069 78.322 56.1518 78.322 55.4967C78.322 54.1865 78.1021 52.8763 77.8822 51.5661C77.0026 44.5784 71.2853 38.9009 64.4686 37.8091C63.3691 37.5907 62.2696 37.5907 61.3901 37.3724C60.7304 37.3724 59.8508 37.3724 59.6309 36.4989C59.411 35.8438 60.0707 35.1887 60.7304 35.1887C60.9503 35.1887 61.1702 35.1887 61.1702 35.1887C61.61 35.1887 70.1859 35.4071 61.1702 35.1887C70.4058 35.4071 78.1021 41.5213 79.6414 50.6927C79.8612 52.2212 80.0812 53.7498 80.0812 55.4967C80.5209 56.1518 80.0811 56.8069 79.4215 56.8069Z" fill="#38393A"/>
</svg>