<svg width="120" height="120" viewBox="0 0 120 120" fill="none" xmlns="http://www.w3.org/2000/svg">
<path d="M83.7805 36.1875C77.8537 30.2812 69.9512 27 61.6098 27C44.2683 27 30.2195 41 30.2195 58.2812C30.2195 63.75 31.7561 69.2187 34.3902 73.8125L30 90L46.6829 85.625C51.2927 88.0312 56.3415 89.3438 61.6098 89.3438C78.9512 89.3438 93 75.3438 93 58.0625C92.7805 49.9688 89.7073 42.0937 83.7805 36.1875ZM76.7561 69.4375C76.0976 71.1875 73.0244 72.9375 71.4878 73.1562C70.1707 73.375 68.4146 73.375 66.6585 72.9375C65.561 72.5 64.0244 72.0625 62.2683 71.1875C54.3659 67.9062 49.3171 60.0312 48.8781 59.375C48.439 58.9375 45.5854 55.2187 45.5854 51.2812C45.5854 47.3437 47.561 45.5937 48.2195 44.7187C48.878 43.8437 49.7561 43.8437 50.4146 43.8437C50.8537 43.8437 51.5122 43.8437 51.9512 43.8437C52.3902 43.8437 53.0488 43.625 53.7073 45.1562C54.3659 46.6875 55.9024 50.625 56.1219 50.8438C56.3415 51.2812 56.3415 51.7188 56.1219 52.1562C55.9024 52.5938 55.6829 53.0312 55.2439 53.4687C54.8049 53.9062 54.3658 54.5625 54.1463 54.7812C53.7073 55.2187 53.2683 55.6562 53.7073 56.3125C54.1463 57.1875 55.6829 59.5937 58.0976 61.7812C61.1707 64.4062 63.5854 65.2812 64.4634 65.7188C65.3415 66.1562 65.7805 65.9375 66.2195 65.5C66.6585 65.0625 68.1951 63.3125 68.6342 62.4375C69.0732 61.5625 69.7317 61.7812 70.3902 62C71.0488 62.2188 75 64.1875 75.6585 64.625C76.5366 65.0625 76.9756 65.2812 77.1951 65.5C77.4146 66.1562 77.4146 67.6875 76.7561 69.4375Z" fill="#38393A"/>
</svg>